<svg viewBox="0 0 115 117" fill="none" xmlns="http://www.w3.org/2000/svg">
    <path fill-rule="evenodd" clip-rule="evenodd"
        d="M56.2028 0.123644C52.424 0.700663 48.9339 3.25499 47.3441 6.63362C45.8778 9.7034 46.7041 12.2786 49.3062 12.793C51.0822 13.1436 52.8162 11.9896 53.3748 10.0738C53.54 9.47594 53.9939 8.6318 54.3663 8.19877C55.1099 7.35359 56.7823 6.48859 57.7319 6.48859C58.8887 6.48859 60.4994 7.1063 61.3664 7.88992C63.9885 10.2596 63.3076 14.1317 59.9419 15.9244C58.0426 16.9334 57.0511 17.7368 56.4319 18.7875C55.9152 19.6734 55.8535 20.0031 55.7709 21.9804L55.7071 24.2071H54.8191C53.6425 24.2071 50.2758 24.9073 48.1076 25.5876C45.8977 26.3086 42.5738 27.977 40.3848 29.5015C38.4028 30.882 34.8301 34.4046 33.1985 36.5676C29.8527 41.0377 28.3455 46.2705 28.903 51.4626C29.6466 58.2617 33.5697 63.0197 42.326 67.7788C43.5026 68.4174 49.2027 71.2607 54.9635 74.0832C68.7368 80.8196 70.5744 81.8495 72.5982 83.8685C75.1178 86.403 75.8405 88.1331 75.8614 91.5732C75.8614 93.5307 75.7788 94.1693 75.3866 95.2816C74.2926 98.413 71.3181 101.853 68.4272 103.358C66.4034 104.409 63.2856 105.335 60.8895 105.624C58.7621 105.851 54.5294 105.624 53.1666 105.191C52.8152 105.088 52.0308 104.841 51.4116 104.656C50.7924 104.47 49.5321 103.935 48.6243 103.482C43.9575 101.154 41.2319 98.0843 39.2081 92.8515C38.4854 90.9566 37.4939 89.7817 35.9251 88.9167C34.7485 88.2572 34.418 88.1748 33.1378 88.1748C29.7512 88.1957 27.2526 90.7093 27.2526 94.1286C27.2526 97.7952 29.9782 102.761 34.4797 107.231C40.8188 113.576 49.141 116.955 58.5373 116.976C63.4937 116.996 67.7882 116.131 72.4759 114.174C79.931 111.083 86.1875 104.636 88.6035 97.549C89.2645 95.6541 89.2854 95.4893 89.2854 92.0898C89.3064 88.8969 89.2645 88.4638 88.8106 87.2482C87.5513 83.808 85.8162 81.2944 83.1523 79.0489C79.7448 76.1649 76.8958 74.5987 61.9657 67.3677C49.6587 61.4139 47.0973 59.9103 44.7231 57.19C42.6376 54.8006 41.4809 51.3186 41.7905 48.3104C41.9557 46.6827 42.761 44.2723 43.6281 42.7479C44.4125 41.3466 46.7668 38.8747 48.4392 37.6799C49.9463 36.5885 52.7347 35.2487 54.407 34.7959C56.0386 34.343 60.6636 34.1782 62.5022 34.5079C67.5612 35.3729 72.8681 38.7933 75.4703 42.8314C75.8625 43.4699 76.5235 44.7471 76.9157 45.6945C77.8653 47.8784 78.6916 49.0732 79.931 49.9997C82.4913 51.8748 86.5598 51.4011 88.1496 49.0106C89.1202 47.5268 89.3471 46.1265 88.934 44.1075C88.067 39.8837 83.8332 33.8276 79.5179 30.5929C74.4997 26.8439 67.6857 24.2061 63.0388 24.2061H61.7367V23.4235C61.7367 22.6608 61.7984 22.5992 62.8108 22.1255C68.6552 19.4272 71.4216 12.1951 68.7577 6.59189C68.035 5.06743 66.2173 3.02752 64.6275 1.95696C62.336 0.412675 59.0519 -0.308337 56.2028 0.123644Z"
        fill="#3D4455" />
    <path fill-rule="evenodd" clip-rule="evenodd"
        d="M47.2606 43.0578C47.0127 43.4282 46.6613 44.9527 46.4552 46.5804C45.9386 50.5569 47.4875 53.8938 50.8741 56.2009C52.1543 57.0659 56.615 59.2706 69.0664 65.2036C79.4322 70.1276 82.778 71.8993 86.6394 74.4745C87.5065 75.0515 88.5806 75.5659 89.2207 75.711C89.8399 75.855 92.9378 76.8024 96.1173 77.8124C114.455 83.6838 113.175 83.3333 114.144 82.8397C114.95 82.4276 115.177 81.4801 114.867 79.7292C114.371 76.8452 112.307 74.1667 109.539 72.7664C108.321 72.1685 100.308 69.4702 90.7477 66.4422C85.5025 64.7737 76.0445 61.5798 68.2391 58.8199C61.6928 56.492 54.9813 53.7519 52.9167 52.5572C49.8816 50.7854 47.7751 47.3244 47.4446 43.5753C47.4059 43.1809 47.3233 42.9336 47.2606 43.0578Z"
        fill="#3D4455" />
    <path fill-rule="evenodd" clip-rule="evenodd"
        d="M25.2895 66.2346C21.7795 67.326 16.1411 69.0978 12.7964 70.1287C5.42386 72.4357 4.16461 72.9919 2.61564 74.5789C0.943263 76.2474 0.117009 78.0191 0.0134653 80.0799C-0.0691602 81.8516 0.219506 82.5727 1.12839 82.9233C1.64506 83.109 4.51498 82.3462 14.5514 79.3182C16.9464 78.5972 19.9618 77.7113 21.2628 77.3607C22.5639 76.9903 26.0949 75.9594 29.1102 75.0735C32.1255 74.1668 34.9745 73.3435 35.4702 73.2193C36.3582 73.0336 36.3791 73.0336 49.3262 79.3787C56.4508 82.8805 63.0378 86.1777 63.9467 86.713C66.2592 88.0935 67.9326 89.6388 68.7379 91.1632C69.605 92.7701 69.7702 93.3263 70.0798 95.5926L70.3277 97.4468L70.7816 95.5718C71.8756 91.0391 70.905 87.2483 67.9525 84.5082C66.6932 83.3542 63.6779 81.5824 59.7747 79.7283C54.5504 77.2355 40.1987 70.1078 38.815 69.3242C37.0391 68.3152 34.7266 66.6259 33.1358 65.163C32.5365 64.6277 31.9592 64.1947 31.8766 64.1947C31.773 64.2155 28.8205 65.1223 25.2895 66.2346Z"
        fill="#3D4455" />
</svg>